<?xml version="1.0" encoding="UTF-8" standalone="no"?>
<!-- Created with Inkscape (http://www.inkscape.org/) -->

<svg
   xmlns:dc="http://purl.org/dc/elements/1.1/"
   xmlns:cc="http://creativecommons.org/ns#"
   xmlns:rdf="http://www.w3.org/1999/02/22-rdf-syntax-ns#"
   xmlns:svg="http://www.w3.org/2000/svg"
   xmlns="http://www.w3.org/2000/svg"
   xmlns:sodipodi="http://sodipodi.sourceforge.net/DTD/sodipodi-0.dtd"
   xmlns:inkscape="http://www.inkscape.org/namespaces/inkscape"
   width="240mm"
   height="240mm"
   viewBox="0 0 240 240"
   version="1.1"
   id="svg8"
   inkscape:version="0.92.4 (33fec40, 2019-01-16)"
   sodipodi:docname="logo.svg"
   inkscape:export-filename="/home/ezequiel/Escritorio/development/bozi_contruction/logo/logo.png"
   inkscape:export-xdpi="96"
   inkscape:export-ydpi="96">
  <defs
     id="defs2" />
  <sodipodi:namedview
     id="base"
     pagecolor="#ffffff"
     bordercolor="#666666"
     borderopacity="1.0"
     inkscape:pageopacity="0.0"
     inkscape:pageshadow="2"
     inkscape:zoom="0.16"
     inkscape:cx="-509.2605"
     inkscape:cy="863.71375"
     inkscape:document-units="mm"
     inkscape:current-layer="layer5"
     showgrid="false"
     showguides="true"
     inkscape:guide-bbox="true"
     inkscape:window-width="1366"
     inkscape:window-height="713"
     inkscape:window-x="0"
     inkscape:window-y="27"
     inkscape:window-maximized="1">
    <sodipodi:guide
       position="1.1338707,66.898373"
       orientation="1,0"
       id="guide950"
       inkscape:locked="false" />
    <sodipodi:guide
       position="157.60803,240.38059"
       orientation="0,1"
       id="guide952"
       inkscape:locked="false" />
    <sodipodi:guide
       position="107.94471,170.97811"
       orientation="1,0"
       id="guide1231"
       inkscape:locked="false" />
  </sodipodi:namedview>
  <metadata
     id="metadata5">
    <rdf:RDF>
      <cc:Work
         rdf:about="">
        <dc:format>image/svg+xml</dc:format>
        <dc:type
           rdf:resource="http://purl.org/dc/dcmitype/StillImage" />
        <dc:title />
      </cc:Work>
    </rdf:RDF>
  </metadata>
  <g
     inkscape:groupmode="layer"
     id="layer2"
     inkscape:label="zi">
    <g
       id="g1304"
       transform="matrix(3.0534505,0,0,2.5880108,830.28244,-460.59454)">
      <path
         inkscape:connector-curvature="0"
         id="path1296"
         d="m -258.16919,231.78188 -0.15033,6.31392 21.74795,0.10022 3.75828,-6.11348 c 0,0 0.35078,-0.5011 -0.25055,-0.5011 -0.60132,0 -25.10535,0.20044 -25.10535,0.20044 z"
         style="fill:#d40000;fill-opacity:1;stroke:none;stroke-width:0.26458332px;stroke-linecap:butt;stroke-linejoin:miter;stroke-opacity:1" />
      <path
         inkscape:connector-curvature="0"
         id="path1298"
         d="m -258.57007,260.64551 9.62121,-15.98524 c 0,0 7.81723,-3.10685 9.62121,-2.60574 0,0 0.75166,0 0.25055,0.90199 -0.5011,0.90199 -6.76491,11.22474 -6.76491,11.22474 l 12.9285,0.15034 0.15033,6.91524 -25.15546,0.0501 c 0,0 -1.0022,-0.10023 -0.65143,-0.65144 z"
         style="fill:#d40000;fill-opacity:1;stroke:none;stroke-width:0.26458332px;stroke-linecap:butt;stroke-linejoin:miter;stroke-opacity:1" />
    </g>
    <path
       style="fill:#d40000;fill-opacity:1;stroke:none;stroke-width:0.34889802px;stroke-linecap:butt;stroke-linejoin:miter;stroke-opacity:1"
       d="m 151.00516,138.62477 28.00267,-0.46578 -0.12245,72.74128 -26.30285,5.52611 h -1.71748 z"
       id="path1306"
       inkscape:connector-curvature="0"
       sodipodi:nodetypes="cccccc" />
  </g>
  <g
     inkscape:groupmode="layer"
     id="layer5"
     inkscape:label="bo_2"
     style="display:inline">
    <g
       id="g911"
       transform="translate(-2.705631e-5,3.7041875)">
      <g
         id="g923"
         transform="matrix(2.5023935,0,0,2.379064,1064.1521,-401.54956)">
        <g
           style="fill:#34073d;fill-opacity:0.97254902"
           id="g915">
          <path
             d="m -393.81103,222.98683 a 16.93796,17.228323 0 0 1 -15.92026,-18.01384 16.93796,17.228323 0 0 1 17.52365,-16.40185 16.93796,17.228323 0 0 1 16.32838,17.63184 16.93796,17.228323 0 0 1 -17.14336,16.8125"
             sodipodi:open="true"
             sodipodi:end="1.5832126"
             sodipodi:start="1.6297937"
             sodipodi:ry="17.228323"
             sodipodi:rx="16.93796"
             sodipodi:cy="205.78848"
             sodipodi:cx="-392.81232"
             sodipodi:type="arc"
             id="path903"
             style="opacity:0.95999995;fill:#34073d;fill-opacity:0.97254902;stroke:none;stroke-width:0.11353829;stroke-linejoin:round;stroke-miterlimit:4;stroke-dasharray:none;stroke-dashoffset:0;stroke-opacity:1;paint-order:normal" />
          <path
             sodipodi:nodetypes="ccccccc"
             inkscape:connector-curvature="0"
             id="path907"
             d="m -409.36627,206.50807 -0.0968,-33.39198 c 0,0 0.33875,-1.01628 1.40343,-0.67752 l 11.663,9.29168 0.0484,8.51738 c 0,0 -12.6936,2.89476 -13.01802,16.26044 z"
             style="fill:#34073d;fill-opacity:0.97254902;stroke:none;stroke-width:0.26499999;stroke-linecap:butt;stroke-linejoin:miter;stroke-miterlimit:4;stroke-dasharray:none;stroke-opacity:1" />
        </g>
        <path
           inkscape:connector-curvature="0"
           id="path917"
           d="m -400.4421,205.29931 -2.48958,-0.0283 c 0,0 -0.4727,-0.33921 0.12604,-0.7915 0.59879,-0.45228 10.02139,-8.3389 10.02139,-8.3389 l 10.33652,8.56504 c 0,0 0.34665,0.50882 -0.34663,0.56536 -0.69331,0.0565 -2.23749,-0.0565 -2.23749,-0.0565 l -0.0315,7.71702 -4.601,0.0565 -0.063,-3.73132 -3.02534,-0.0283 0.0315,3.78784 h -7.72089 z"
           style="fill:#ffffff;fill-opacity:0.97254902;stroke:none;stroke-width:0.23076935px;stroke-linecap:butt;stroke-linejoin:miter;stroke-opacity:1" />
      </g>
    </g>
    <g
       style="display:inline;opacity:0.97000002"
       id="g1155"
       transform="matrix(4.5930603,-0.07999695,0.0806725,4.6318482,1236.0712,-1665.9175)">
      <path
         inkscape:connector-curvature="0"
         id="path1065"
         d="m -186.86213,361.63372 -0.63315,1.09165 v 0.21545 l 0.57868,1.1132 0.0885,0.0575 1.49096,0.0215 0.0817,-0.079 0.57187,-1.08447"
         style="fill:#34073d;fill-opacity:1;stroke:none;stroke-width:0.05221318px;stroke-linecap:butt;stroke-linejoin:miter;stroke-opacity:1"
         transform="matrix(5.2046516,0,0,4.9337025,728.80554,-1413.7396)" />
      <path
         inkscape:connector-curvature="0"
         id="path1067"
         d="m -184.68357,362.96954 0.007,-0.17953 -0.62634,-1.14193 -0.11574,-0.0862 -1.32076,-0.0215 -0.12253,0.0934"
         style="fill:#34073d;fill-opacity:0.99683545;stroke:none;stroke-width:0.03435097;stroke-linecap:butt;stroke-linejoin:miter;stroke-miterlimit:4;stroke-dasharray:none;stroke-opacity:1"
         transform="matrix(5.2046516,0,0,4.9337025,728.80554,-1413.7396)" />
      <path
         inkscape:connector-curvature="0"
         id="path1137"
         d="m -184.68357,362.96955 -2.17837,-1.33577"
         style="fill:none;fill-opacity:1;stroke:#34073d;stroke-width:0.06406457;stroke-linecap:butt;stroke-linejoin:miter;stroke-miterlimit:4;stroke-dasharray:none;stroke-opacity:1"
         transform="matrix(5.2046516,0,0,4.9337025,728.80554,-1413.7396)" />
      <path
         style="opacity:0.95999995;fill:#ffffff;fill-opacity:1;stroke:none;stroke-width:0.12789077;stroke-linejoin:round;stroke-miterlimit:4;stroke-dasharray:none;stroke-dashoffset:0;stroke-opacity:0.97468351;paint-order:normal"
         id="path1069"
         sodipodi:type="arc"
         sodipodi:cx="-239.61916"
         sodipodi:cy="376.28271"
         sodipodi:rx="2.0085917"
         sodipodi:ry="1.8901323"
         sodipodi:start="1.6297937"
         sodipodi:end="1.5832126"
         sodipodi:open="true"
         d="m -239.73759,378.16956 a 2.0085917,1.8901323 0 0 1 -1.88791,-1.97631 2.0085917,1.8901323 0 0 1 2.07805,-1.79946 2.0085917,1.8901323 0 0 1 1.9363,1.9344 2.0085917,1.8901323 0 0 1 -2.03294,1.84451" />
    </g>
  </g>
</svg>
