<?xml version="1.0" encoding="UTF-8" standalone="no"?>
<svg
   xmlns:dc="http://purl.org/dc/elements/1.1/"
   xmlns:cc="http://creativecommons.org/ns#"
   xmlns:rdf="http://www.w3.org/1999/02/22-rdf-syntax-ns#"
   xmlns:svg="http://www.w3.org/2000/svg"
   xmlns="http://www.w3.org/2000/svg"
   xmlns:sodipodi="http://sodipodi.sourceforge.net/DTD/sodipodi-0.dtd"
   xmlns:inkscape="http://www.inkscape.org/namespaces/inkscape"
   aria-hidden="true"
   focusable="false"
   data-prefix="fas"
   data-icon="users"
   class="svg-inline--fa fa-users fa-w-20"
   role="img"
   viewBox="0 0 576 512"
   version="1.1"
   id="svg4"
   sodipodi:docname="gremio.svg"
   inkscape:version="0.92.4 (33fec40, 2019-01-16)"
   width="576"
   height="512">
  <metadata
     id="metadata10">
    <rdf:RDF>
      <cc:Work
         rdf:about="">
        <dc:format>image/svg+xml</dc:format>
        <dc:type
           rdf:resource="http://purl.org/dc/dcmitype/StillImage" />
        <dc:title></dc:title>
      </cc:Work>
    </rdf:RDF>
  </metadata>
  <defs
     id="defs8" />
  <sodipodi:namedview
     pagecolor="#ffffff"
     bordercolor="#666666"
     borderopacity="1"
     objecttolerance="10"
     gridtolerance="10"
     guidetolerance="10"
     inkscape:pageopacity="0"
     inkscape:pageshadow="2"
     inkscape:window-width="1366"
     inkscape:window-height="713"
     id="namedview6"
     showgrid="false"
     inkscape:zoom="0.18983885"
     inkscape:cx="-924.43083"
     inkscape:cy="467.45076"
     inkscape:window-x="0"
     inkscape:window-y="27"
     inkscape:window-maximized="1"
     inkscape:current-layer="svg4" />
  <g
     id="g825"
     transform="matrix(1.2023178,0,0,1.1202536,-89.161203,-47.406486)"
     style="fill:#aa3d30;fill-opacity:1">
    <path
       style="fill:#aa3d30;fill-opacity:1;stroke-width:0.60212463"
       inkscape:connector-curvature="0"
       id="path2"
       d="m 188.86109,298.72204 c 20.66608,0 37.46826,-17.77342 37.46826,-39.63411 0,-21.8607 -16.80218,-39.63412 -37.46826,-39.63412 -20.66609,0 -37.46827,17.77342 -37.46827,39.63412 0,21.86069 16.80218,39.63411 37.46827,39.63411 z m 262.27782,0 c 20.66609,0 37.46826,-17.77342 37.46826,-39.63411 0,-21.8607 -16.80217,-39.63412 -37.46826,-39.63412 -20.66608,0 -37.46826,17.77342 -37.46826,39.63412 0,21.86069 16.80218,39.63411 37.46826,39.63411 z m 18.73413,19.81706 h -37.46826 c -10.30377,0 -19.61229,4.39691 -26.40341,11.51866 23.59329,13.68616 40.33692,38.39556 43.96666,67.74957 h 38.63914 c 10.36232,0 18.73413,-8.85574 18.73413,-19.81706 v -19.81706 c 0,-21.86069 -16.80217,-39.63411 -37.46826,-39.63411 z m -149.87304,0 c 36.23883,0 65.56945,-31.02608 65.56945,-69.3597 0,-38.33363 -29.33062,-69.35971 -65.56945,-69.35971 -36.23884,0 -65.56946,31.02608 -65.56946,69.35971 0,38.33362 29.33062,69.3597 65.56946,69.3597 z m 44.96191,19.81705 h -4.85917 c -12.17718,6.19284 -25.70088,9.90853 -40.10274,9.90853 -14.40187,0 -27.86702,-3.71569 -40.10275,-9.90853 h -4.85917 c -37.23408,0 -67.44287,31.95502 -67.44287,71.34142 v 17.83535 c 0,16.411 12.587,29.72559 28.1012,29.72559 h 168.60718 c 15.5142,0 28.10119,-13.31459 28.10119,-29.72559 v -17.83535 c 0,-39.3864 -30.20878,-71.34142 -67.44287,-71.34142 z m -130.96328,-8.29839 c -6.79112,-7.12175 -16.09965,-11.51866 -26.40342,-11.51866 h -37.46826 c -20.66608,0 -37.46826,17.77342 -37.46826,39.63411 v 19.81706 c 0,10.96132 8.37182,19.81706 18.73413,19.81706 h 38.5806 c 3.68829,-29.35401 20.43191,-54.06341 44.02521,-67.74957 z" />
    <path
       style="fill:#aa3d30;fill-opacity:1;stroke-width:0.24525037"
       inkscape:connector-curvature="0"
       id="path2-3"
       d="m 373.11784,135.57731 c 0,-20.25751 -11.74217,-37.591876 -28.39996,-44.836614 l -9.72402,20.603334 V 83.071874 a 3.8124002,4.0388793 0 0 0 -3.81239,-4.038879 h -22.87443 a 3.8124002,4.0388793 0 0 0 -3.8124,4.038879 v 28.272156 l -9.724,-20.603334 c -16.6578,7.244738 -28.4,24.579104 -28.4,44.836614 v 16.15552 h 106.7472 z m 3.81243,24.23327 H 262.55824 a 3.8124002,4.0388793 0 0 0 -3.8124,4.03889 v 8.07775 a 3.8124002,4.0388793 0 0 0 3.8124,4.03888 h 114.37203 a 3.8124002,4.0388793 0 0 0 3.8124,-4.03888 v -8.07775 a 3.8124002,4.0388793 0 0 0 -3.8124,-4.03889 z" />
  </g>
</svg>
