<?xml version="1.0" encoding="UTF-8" standalone="no"?>
<svg
   xmlns:dc="http://purl.org/dc/elements/1.1/"
   xmlns:cc="http://creativecommons.org/ns#"
   xmlns:rdf="http://www.w3.org/1999/02/22-rdf-syntax-ns#"
   xmlns:svg="http://www.w3.org/2000/svg"
   xmlns="http://www.w3.org/2000/svg"
   xmlns:sodipodi="http://sodipodi.sourceforge.net/DTD/sodipodi-0.dtd"
   xmlns:inkscape="http://www.inkscape.org/namespaces/inkscape"
   aria-hidden="true"
   focusable="false"
   data-prefix="fab"
   data-icon="twitter"
   class="svg-inline--fa fa-twitter fa-w-16"
   role="img"
   viewBox="0 0 576 512"
   version="1.1"
   id="svg4"
   sodipodi:docname="twitter-brands.svg"
   width="576"
   height="512"
   inkscape:version="0.92.4 (33fec40, 2019-01-16)">
  <metadata
     id="metadata10">
    <rdf:RDF>
      <cc:Work
         rdf:about="">
        <dc:format>image/svg+xml</dc:format>
        <dc:type
           rdf:resource="http://purl.org/dc/dcmitype/StillImage" />
        <dc:title></dc:title>
      </cc:Work>
    </rdf:RDF>
  </metadata>
  <defs
     id="defs8" />
  <sodipodi:namedview
     pagecolor="#ffffff"
     bordercolor="#666666"
     borderopacity="1"
     objecttolerance="10"
     gridtolerance="10"
     guidetolerance="10"
     inkscape:pageopacity="0"
     inkscape:pageshadow="2"
     inkscape:window-width="857"
     inkscape:window-height="480"
     id="namedview6"
     showgrid="false"
     inkscape:zoom="0.25927734"
     inkscape:cx="170.4457"
     inkscape:cy="209.25321"
     inkscape:window-x="0"
     inkscape:window-y="27"
     inkscape:window-maximized="0"
     inkscape:current-layer="svg4" />
  <path
     d="m 491.37,151.716 c 0.325,4.548 0.325,9.097 0.325,13.645 0,138.72 -105.583,298.558 -298.558,298.558 -59.452,0 -114.68,-17.219 -161.137,-47.106 8.447,0.974 16.568,1.299 25.34,1.299 49.055,0 94.213,-16.568 130.274,-44.832 -46.132,-0.975 -84.792,-31.188 -98.112,-72.772 6.498,0.974 12.995,1.624 19.818,1.624 9.421,0 18.843,-1.3 27.614,-3.573 -48.081,-9.747 -84.143,-51.98 -84.143,-102.985 v -1.299 c 13.969,7.797 30.214,12.67 47.431,13.319 -28.264,-18.843 -46.781,-51.005 -46.781,-87.391 0,-19.492 5.197,-37.36 14.294,-52.954 51.655,63.675 129.3,105.258 216.365,109.807 -1.624,-7.797 -2.599,-15.918 -2.599,-24.04 0,-57.828 46.782,-104.934 104.934,-104.934 30.213,0 57.502,12.67 76.67,33.137 23.715,-4.548 46.456,-13.32 66.599,-25.34 -7.798,24.366 -24.366,44.833 -46.132,57.827 21.117,-2.273 41.584,-8.122 60.426,-16.243 -14.292,20.791 -32.161,39.308 -52.628,54.253 z"
     id="path2"
     inkscape:connector-curvature="0"
     style="fill:currentColor" />
</svg>
