<?xml version="1.0" encoding="UTF-8" standalone="no"?>
<svg
   xmlns:dc="http://purl.org/dc/elements/1.1/"
   xmlns:cc="http://creativecommons.org/ns#"
   xmlns:rdf="http://www.w3.org/1999/02/22-rdf-syntax-ns#"
   xmlns:svg="http://www.w3.org/2000/svg"
   xmlns="http://www.w3.org/2000/svg"
   xmlns:sodipodi="http://sodipodi.sourceforge.net/DTD/sodipodi-0.dtd"
   xmlns:inkscape="http://www.inkscape.org/namespaces/inkscape"
   aria-hidden="true"
   focusable="false"
   data-prefix="fab"
   data-icon="whatsapp"
   class="svg-inline--fa fa-whatsapp fa-w-14"
   role="img"
   viewBox="0 0 576 512"
   version="1.1"
   id="svg4"
   sodipodi:docname="whatsapp-brands.svg"
   width="576"
   height="512"
   inkscape:version="0.92.4 (33fec40, 2019-01-16)">
  <metadata
     id="metadata10">
    <rdf:RDF>
      <cc:Work
         rdf:about="">
        <dc:format>image/svg+xml</dc:format>
        <dc:type
           rdf:resource="http://purl.org/dc/dcmitype/StillImage" />
        <dc:title></dc:title>
      </cc:Work>
    </rdf:RDF>
  </metadata>
  <defs
     id="defs8" />
  <sodipodi:namedview
     pagecolor="#ffffff"
     bordercolor="#666666"
     borderopacity="1"
     objecttolerance="10"
     gridtolerance="10"
     guidetolerance="10"
     inkscape:pageopacity="0"
     inkscape:pageshadow="2"
     inkscape:window-width="857"
     inkscape:window-height="480"
     id="namedview6"
     showgrid="false"
     inkscape:zoom="0.18333677"
     inkscape:cx="94.906638"
     inkscape:cy="449.2954"
     inkscape:window-x="0"
     inkscape:window-y="27"
     inkscape:window-maximized="0"
     inkscape:current-layer="svg4" />
  <path
     d="M 458.9,97.1 C 417,55.1 361.2,32 301.9,32 c -122.4,0 -222,99.6 -222,222 0,39.1 10.2,77.3 29.6,111 L 78,480 195.7,449.1 c 32.4,17.7 68.9,27 106.1,27 h 0.1 c 122.3,0 224.1,-99.6 224.1,-222 0,-59.3 -25.2,-115 -67.1,-157 z m -157,341.6 c -33.2,0 -65.7,-8.9 -94,-25.7 l -6.7,-4 -69.8,18.3 18.6,-68.1 -4.4,-7 C 127.1,322.8 117.4,288.9 117.4,254 117.4,152.3 200.2,69.5 302,69.5 c 49.3,0 95.6,19.2 130.4,54.1 34.8,34.9 56.2,81.2 56.1,130.5 0,101.8 -84.9,184.6 -186.6,184.6 z M 403.1,300.5 c -5.5,-2.8 -32.8,-16.2 -37.9,-18 -5.1,-1.9 -8.8,-2.8 -12.5,2.8 -3.7,5.6 -14.3,18 -17.6,21.8 -3.2,3.7 -6.5,4.2 -12,1.4 -32.6,-16.3 -54,-29.1 -75.5,-66 -5.7,-9.8 5.7,-9.1 16.3,-30.3 1.8,-3.7 0.9,-6.9 -0.5,-9.7 -1.4,-2.8 -12.5,-30.1 -17.1,-41.2 -4.5,-10.8 -9.1,-9.3 -12.5,-9.5 -3.2,-0.2 -6.9,-0.2 -10.6,-0.2 -3.7,0 -9.7,1.4 -14.8,6.9 -5.1,5.6 -19.4,19 -19.4,46.3 0,27.3 19.9,53.7 22.6,57.4 2.8,3.7 39.1,59.7 94.8,83.8 35.2,15.2 49,16.5 66.6,13.9 10.7,-1.6 32.8,-13.4 37.4,-26.4 4.6,-13 4.6,-24.1 3.2,-26.4 -1.3,-2.5 -5,-3.9 -10.5,-6.6 z"
     id="path2"
     inkscape:connector-curvature="0"
     style="fill:currentColor" />
</svg>
