<?xml version="1.0" encoding="UTF-8" standalone="no"?>
<svg
   xmlns:dc="http://purl.org/dc/elements/1.1/"
   xmlns:cc="http://creativecommons.org/ns#"
   xmlns:rdf="http://www.w3.org/1999/02/22-rdf-syntax-ns#"
   xmlns:svg="http://www.w3.org/2000/svg"
   xmlns="http://www.w3.org/2000/svg"
   xmlns:sodipodi="http://sodipodi.sourceforge.net/DTD/sodipodi-0.dtd"
   xmlns:inkscape="http://www.inkscape.org/namespaces/inkscape"
   aria-hidden="true"
   focusable="false"
   data-prefix="fas"
   data-icon="house-damage"
   class="svg-inline--fa fa-house-damage fa-w-18"
   role="img"
   viewBox="0 0 576 512"
   version="1.1"
   id="svg4"
   sodipodi:docname="house-damage-solid.svg"
   inkscape:version="0.92.4 (33fec40, 2019-01-16)">
  <metadata
     id="metadata10">
    <rdf:RDF>
      <cc:Work
         rdf:about="">
        <dc:format>image/svg+xml</dc:format>
        <dc:type
           rdf:resource="http://purl.org/dc/dcmitype/StillImage" />
        <dc:title></dc:title>
      </cc:Work>
    </rdf:RDF>
  </metadata>
  <defs
     id="defs8" />
  <sodipodi:namedview
     pagecolor="#ffffff"
     bordercolor="#666666"
     borderopacity="1"
     objecttolerance="10"
     gridtolerance="10"
     guidetolerance="10"
     inkscape:pageopacity="0"
     inkscape:pageshadow="2"
     inkscape:window-width="857"
     inkscape:window-height="480"
     id="namedview6"
     showgrid="false"
     inkscape:zoom="0.18333677"
     inkscape:cx="332.37975"
     inkscape:cy="484.40923"
     inkscape:window-x="0"
     inkscape:window-y="27"
     inkscape:window-maximized="0"
     inkscape:current-layer="svg4" />
  <path
     d="M 288,114.96 69.47,307.71 c -1.62,1.46 -3.69,2.14 -5.47,3.35 V 496 c 0,8.84 7.16,16 16,16 h 108.32168 c 68.55847,-180.70006 10.12329,-231.93948 0,0 H 496 c 8.84,0 16,-7.16 16,-16 V 311.1 c -1.7,-1.16 -3.72,-1.82 -5.26,-3.2 z M 570.69,236.28 512,184.45 V 48 c 0,-8.84 -7.16,-16 -16,-16 h -64 c -8.84,0 -16,7.16 -16,16 V 99.69 L 314.75,10.31 C 307.12,3.45 297.56,0.01 288,0 278.44,-0.01 268.9,3.41 261.3,10.27 L 5.31,236.28 c -6.57,5.91 -7.12,16.02 -1.21,22.6 l 21.4,23.82 c 5.9,6.57 16.02,7.12 22.6,1.21 L 277.42,81.63 c 6.05,-5.33 15.12,-5.33 21.17,0 L 527.91,283.9 c 6.57,5.9 16.69,5.36 22.6,-1.21 l 21.4,-23.82 c 5.9,-6.57 5.36,-16.69 -1.22,-22.59 z"
     id="path2"
     inkscape:connector-curvature="0"
     style="fill:#ffffff"
     sodipodi:nodetypes="cccssccsscccccssssccsccccccccccc" />
  <path
     inkscape:connector-curvature="0"
     style="fill:#d54130;stroke-width:0.6304391;fill-opacity:1"
     d="m 181.36134,361.93559 v 38.68815 h 210.39644 v -38.68815 c 0,-21.33893 18.86993,-38.68813 42.07929,-38.68813 h 21.03964 c 0,-32.03861 -28.27203,-58.0322 -63.11893,-58.0322 H 181.36134 c -34.84692,0 -63.11895,25.99359 -63.11895,58.0322 h 21.03965 c 23.20935,0 42.0793,17.3492 42.0793,38.68813 z m 273.51537,-19.34406 h -21.03964 c -11.63755,0 -21.03965,8.6444 -21.03965,19.34406 v 58.0322 H 160.32168 v -58.0322 c 0,-10.69966 -9.4021,-19.34406 -21.03965,-19.34406 h -21.03964 c -23.20936,0 -42.07929,17.34921 -42.07929,38.68814 0,14.26624 8.54736,26.59807 21.03964,33.30806 v 73.08431 c 0,5.31961 4.73392,9.67203 10.51983,9.67203 h 42.07929 c 5.7859,0 10.51982,-4.35242 10.51982,-9.67203 V 478 h 252.47574 v 9.67204 c 0,5.31961 4.73392,9.67203 10.51982,9.67203 h 42.07929 c 5.78591,0 10.51983,-4.35242 10.51983,-9.67203 v -73.08431 c 12.49228,-6.70999 21.03964,-19.04182 21.03964,-33.30806 0,-21.33893 -18.86993,-38.68814 -42.07929,-38.68814 z"
     id="path2-3" />
</svg>
