<?xml version="1.0" encoding="UTF-8" standalone="no"?>
<svg
   xmlns:dc="http://purl.org/dc/elements/1.1/"
   xmlns:cc="http://creativecommons.org/ns#"
   xmlns:rdf="http://www.w3.org/1999/02/22-rdf-syntax-ns#"
   xmlns:svg="http://www.w3.org/2000/svg"
   xmlns="http://www.w3.org/2000/svg"
   xmlns:sodipodi="http://sodipodi.sourceforge.net/DTD/sodipodi-0.dtd"
   xmlns:inkscape="http://www.inkscape.org/namespaces/inkscape"
   aria-hidden="true"
   focusable="false"
   data-prefix="fas"
   data-icon="ruler-combined"
   class="svg-inline--fa fa-ruler-combined fa-w-16"
   role="img"
   viewBox="0 0 576 512"
   version="1.1"
   id="svg4"
   sodipodi:docname="ruler-combined-solid.svg"
   width="576"
   height="512"
   inkscape:version="0.92.4 (33fec40, 2019-01-16)">
  <metadata
     id="metadata10">
    <rdf:RDF>
      <cc:Work
         rdf:about="">
        <dc:format>image/svg+xml</dc:format>
        <dc:type
           rdf:resource="http://purl.org/dc/dcmitype/StillImage" />
        <dc:title></dc:title>
      </cc:Work>
    </rdf:RDF>
  </metadata>
  <defs
     id="defs8" />
  <sodipodi:namedview
     pagecolor="#ffffff"
     bordercolor="#666666"
     borderopacity="1"
     objecttolerance="10"
     gridtolerance="10"
     guidetolerance="10"
     inkscape:pageopacity="0"
     inkscape:pageshadow="2"
     inkscape:window-width="857"
     inkscape:window-height="480"
     id="namedview6"
     showgrid="false"
     inkscape:zoom="0.25927734"
     inkscape:cx="244.39974"
     inkscape:cy="259.44531"
     inkscape:window-x="0"
     inkscape:window-y="27"
     inkscape:window-maximized="0"
     inkscape:current-layer="svg4" />
  <path
     d="m 198.56874,291.85687 h -56 c -4.42,0 -8,-3.58 -8,-8 v -16 c 0,-4.42 3.58,-8 8,-8 h 56 v -64 h -56 c -4.42,0 -8,-3.58 -8,-8 v -16 c 0,-4.42 3.58,-8 8,-8 h 56 V 99.856874 h -56 c -4.42,0 -8,-3.58 -8,-8 v -16 c 0,-4.42 3.58,-8 8,-8 h 56 v -32 c 0,-17.67 -14.33,-32.0000002 -32,-32.0000002 H 70.568738 c -17.67,0 -32,14.3300002 -32,32.0000002 V 483.85687 c 0,2.77 0.91,5.24 1.57,7.8 l 158.430002,-158.42 z m 320,64 h -32 v 56 c 0,4.42 -3.58,8 -8,8 h -16 c -4.42,0 -8,-3.58 -8,-8 v -56 h -64 v 56 c 0,4.42 -3.58,8 -8,8 h -16 c -4.42,0 -8,-3.58 -8,-8 v -56 h -64 v 56 c 0,4.42 -3.58,8 -8,8 h -16 c -4.42,0 -8,-3.58 -8,-8 v -56 h -41.37 l -158.430002,158.43 c 2.56,0.66 5.04,1.57 7.8,1.57 H 518.56874 c 17.67,0 32,-14.33 32,-32 v -96 c 0,-17.67 -14.33,-32 -32,-32 z"
     id="path2"
     inkscape:connector-curvature="0"
     style="fill:#ffffff;fill-opacity:1"
     inkscape:export-xdpi="96"
     inkscape:export-ydpi="96" />
  <path
     inkscape:connector-curvature="0"
     style="fill:#ffffff;stroke-width:0.68613255;fill-opacity:1"
     d="m 492.56498,46.644077 h -58.30509 c 0,-22.80208 -20.91694,-41.3408701 -46.64406,-41.3408701 -25.72712,0 -46.64407,18.5387901 -46.64407,41.3408701 h -58.30509 c -19.31356,0 -34.98305,13.88794 -34.98305,31.00565 V 305.02448 c 0,17.1177 15.66949,31.00565 34.98305,31.00565 h 209.89831 c 19.31356,0 34.98305,-13.88795 34.98305,-31.00565 V 77.649727 c 0,-17.11771 -15.66949,-31.00565 -34.98305,-31.00565 z M 387.61583,31.141247 c 9.69322,0 17.49152,6.91168 17.49152,15.50283 0,8.59114 -7.7983,15.50282 -17.49152,15.50282 -9.69322,0 -17.49153,-6.91168 -17.49153,-15.50282 0,-8.59115 7.79831,-15.50283 17.49153,-15.50283 z M 492.56498,301.14878 c 0,2.13163 -1.9678,3.8757 -4.37288,3.8757 H 287.03956 c -2.40509,0 -4.37289,-1.74407 -4.37289,-3.8757 V 81.525427 c 0,-2.13164 1.9678,-3.8757 4.37289,-3.8757 h 30.61016 v 23.254233 c 0,4.26328 3.9356,7.75141 8.74577,7.75141 h 122.44068 c 4.81017,0 8.74576,-3.48813 8.74576,-7.75141 V 77.649727 h 30.61017 c 2.40508,0 4.37288,1.74406 4.37288,3.8757 z"
     id="path2-3" />
</svg>
