<?xml version="1.0" encoding="UTF-8" standalone="no"?>
<!-- Created with Inkscape (http://www.inkscape.org/) -->

<svg
   xmlns:dc="http://purl.org/dc/elements/1.1/"
   xmlns:cc="http://creativecommons.org/ns#"
   xmlns:rdf="http://www.w3.org/1999/02/22-rdf-syntax-ns#"
   xmlns:svg="http://www.w3.org/2000/svg"
   xmlns="http://www.w3.org/2000/svg"
   xmlns:sodipodi="http://sodipodi.sourceforge.net/DTD/sodipodi-0.dtd"
   xmlns:inkscape="http://www.inkscape.org/namespaces/inkscape"
   width="200mm"
   height="200mm"
   viewBox="0 0 200 200"
   version="1.1"
   id="svg8"
   inkscape:version="0.92.4 (33fec40, 2019-01-16)"
   sodipodi:docname="distribucion.svg">
  <defs
     id="defs2" />
  <sodipodi:namedview
     id="base"
     pagecolor="#ffffff"
     bordercolor="#666666"
     borderopacity="1.0"
     inkscape:pageopacity="0.0"
     inkscape:pageshadow="2"
     inkscape:zoom="0.046097922"
     inkscape:cx="-1351.0982"
     inkscape:cy="1479.2175"
     inkscape:document-units="mm"
     inkscape:current-layer="layer1"
     showgrid="false"
     inkscape:window-width="1366"
     inkscape:window-height="713"
     inkscape:window-x="0"
     inkscape:window-y="27"
     inkscape:window-maximized="1"
     showguides="true"
     inkscape:guide-bbox="true">
    <sodipodi:guide
       position="0,-68.875122"
       orientation="1,0"
       id="guide817"
       inkscape:locked="false" />
    <sodipodi:guide
       position="510.82382,206.62536"
       orientation="0,1"
       id="guide819"
       inkscape:locked="false" />
  </sodipodi:namedview>
  <metadata
     id="metadata5">
    <rdf:RDF>
      <cc:Work
         rdf:about="">
        <dc:format>image/svg+xml</dc:format>
        <dc:type
           rdf:resource="http://purl.org/dc/dcmitype/StillImage" />
        <dc:title></dc:title>
      </cc:Work>
    </rdf:RDF>
  </metadata>
  <g
     inkscape:label="Capa 1"
     inkscape:groupmode="layer"
     id="layer1"
     transform="translate(0,-97)">
    <path
       style="fill:#ffffff;stroke:#ffffff;stroke-width:0.41963995;stroke-linecap:butt;stroke-linejoin:miter;stroke-miterlimit:4;stroke-dasharray:none;stroke-opacity:1;fill-opacity:0.99033815"
       d="m 25.209858,172.09712 0.27803,95.23031 c 0,0 6.672704,9.55384 10.843125,-0.61637 l 0.556058,-97.69582 c 2.748897,-1.52354 59.521132,-33.60506 62.000632,-33.28425 v 0 H 101.668 v 0 c 0,0 63.11279,31.43513 62.2787,35.44156 -0.83409,4.00645 -0.27803,96.46307 -0.27803,96.46307 0,0 5.28257,9.55384 11.12119,-0.30819 l -0.27803,-93.99756 c 0,0 1.94621,-10.78655 -9.17498,-19.10759 l -58.94234,-30.81883 c 0,0 -6.672717,-2.46551 -12.233307,-0.30819 l -59.220329,31.12702 c 0,0 -8.062838,4.31461 -9.731016,17.87484 z"
       id="path830"
       inkscape:connector-curvature="0"
       sodipodi:nodetypes="ccccccccscccccccc" />
    <path
       style="fill:#ffffff;stroke:#ffffff;stroke-width:0.47887024;stroke-linecap:butt;stroke-linejoin:miter;stroke-miterlimit:4;stroke-dasharray:none;stroke-opacity:1;fill-opacity:0.99033815"
       d="m 46.818869,270.53122 -0.27803,-107.15435 58.664291,-0.40132 0.55607,47.35653 43.92872,0.40133 0.27803,60.60047 z"
       id="path834"
       inkscape:connector-curvature="0"
       sodipodi:nodetypes="ccccccc" />
    <path
       style="fill:#ffffff;stroke:#ffffff;stroke-width:0.39402813;stroke-linecap:butt;stroke-linejoin:miter;stroke-miterlimit:4;stroke-dasharray:none;stroke-opacity:1;fill-opacity:0.99033815"
       d="m 91.581673,162.85151 0.27804,38.5235 -23.354513,0.30819 -3.336361,-15.71761 c 0,0 1.112121,14.48486 -5.83863,14.79305 -6.950747,0.30818 -12.78937,0.30818 -12.78937,0.30818"
       id="path838"
       inkscape:connector-curvature="0" />
    <path
       style="fill:#ffffff;stroke:#ffffff;stroke-width:0.39402813;stroke-linecap:butt;stroke-linejoin:miter;stroke-miterlimit:4;stroke-dasharray:none;stroke-opacity:1;fill-opacity:0.99033815"
       d="m 57.105969,238.35772 h 37.534024 l 0.27804,18.79949 -37.256002,0.3082 z"
       id="path840"
       inkscape:connector-curvature="0" />
    <path
       style="fill:#ffffff;stroke:#ffffff;stroke-width:0.39402813;stroke-linecap:butt;stroke-linejoin:miter;stroke-miterlimit:4;stroke-dasharray:none;stroke-opacity:1;fill-opacity:0.99033815"
       d="m 105.76273,239.28152 h 37.53403 l 0.27804,18.7995 -37.256,0.30819 z"
       id="path840-3"
       inkscape:connector-curvature="0" />
  </g>
</svg>
