<?xml version="1.0" encoding="UTF-8" standalone="no"?>
<svg
   xmlns:dc="http://purl.org/dc/elements/1.1/"
   xmlns:cc="http://creativecommons.org/ns#"
   xmlns:rdf="http://www.w3.org/1999/02/22-rdf-syntax-ns#"
   xmlns:svg="http://www.w3.org/2000/svg"
   xmlns="http://www.w3.org/2000/svg"
   xmlns:sodipodi="http://sodipodi.sourceforge.net/DTD/sodipodi-0.dtd"
   xmlns:inkscape="http://www.inkscape.org/namespaces/inkscape"
   aria-hidden="true"
   focusable="false"
   data-prefix="fas"
   data-icon="phone-volume"
   class="svg-inline--fa fa-phone-volume fa-w-12"
   role="img"
   viewBox="0 0 200 200"
   version="1.1"
   id="svg4"
   sodipodi:docname="contact.svg"
   width="200"
   height="200"
   inkscape:version="0.92.4 (33fec40, 2019-01-16)">
  <metadata
     id="metadata10">
    <rdf:RDF>
      <cc:Work
         rdf:about="">
        <dc:format>image/svg+xml</dc:format>
        <dc:type
           rdf:resource="http://purl.org/dc/dcmitype/StillImage" />
        <dc:title></dc:title>
      </cc:Work>
    </rdf:RDF>
  </metadata>
  <defs
     id="defs8" />
  <sodipodi:namedview
     pagecolor="#ffffff"
     bordercolor="#666666"
     borderopacity="1"
     objecttolerance="10"
     gridtolerance="10"
     guidetolerance="10"
     inkscape:pageopacity="0"
     inkscape:pageshadow="2"
     inkscape:window-width="1366"
     inkscape:window-height="713"
     id="namedview6"
     showgrid="false"
     inkscape:zoom="0.57548378"
     inkscape:cx="240.37407"
     inkscape:cy="248.6504"
     inkscape:window-x="0"
     inkscape:window-y="27"
     inkscape:window-maximized="1"
     inkscape:current-layer="svg4"
     showguides="true"
     inkscape:guide-bbox="true">
    <sodipodi:guide
       position="-1.7376684,132.0628"
       orientation="1,0"
       id="guide814"
       inkscape:locked="false" />
    <sodipodi:guide
       position="132.0628,199.83187"
       orientation="0,1"
       id="guide816"
       inkscape:locked="false" />
  </sodipodi:namedview>
  <g
     id="g825"
     style="fill:#ffffff;fill-opacity:1"
     transform="matrix(0.31647688,0,0,0.3178887,7.2833742,23.382173)"
     inkscape:export-xdpi="96"
     inkscape:export-ydpi="96">
    <path
       style="fill:#ffffff;fill-opacity:1;stroke-width:1.03878343"
       inkscape:connector-curvature="0"
       id="path2"
       d="m 170.08343,471.74208 c -152.249955,-119.54663 -152.023703,-313.19571 0,-432.564698 6.67971,-5.244905 17.02985,-6.104635 24.9264,-2.229407 l 75.9843,37.291473 a 20.148144,15.820318 0 0 1 8.02901,19.291458 l -37.99156,74.578344 a 20.149316,15.821238 0 0 1 -20.71319,9.86664 L 154.8929,172.8396 c -24.67787,53.62818 -24.16324,112.73231 0,165.24027 l 65.42666,-5.13721 a 20.149316,15.821238 0 0 1 20.71319,9.86664 l 37.99157,74.57926 a 20.149316,15.821238 0 0 1 -8.02902,19.29146 l -75.9843,37.29147 a 20.151661,15.823079 0 0 1 -24.92757,-2.22941 z M 345.68423,92.970332 c 13.87053,18.452898 13.87053,41.429038 0,59.881938 -4.63055,6.16078 -15.36638,7.32611 -21.94292,2.37576 l -7.00443,-5.27068 c -4.58483,-3.44996 -5.61879,-8.85687 -2.65055,-13.26414 a 37.587126,29.513403 0 0 0 0,-27.56382 c -2.96941,-4.40727 -1.93428,-9.814178 2.65055,-13.264143 l 7.00443,-5.270681 c 6.57654,-4.950351 17.31237,-3.785021 21.94292,2.375766 z M 453.28518,9.0343687 c 70.50151,65.9101683 70.44524,161.8961613 0,227.7529313 -5.24482,4.90341 -14.68879,5.28909 -20.57603,0.85881 l -6.79693,-5.11511 c -5.34564,-4.02343 -5.83449,-10.61224 -1.09023,-15.07657 58.24756,-54.80364 58.1995,-134.328652 0,-189.087185 -4.74426,-4.464336 -4.25658,-11.053143 1.09023,-15.076569 l 6.79693,-5.1151166 c 5.88724,-4.4302782 15.33121,-4.0445964 20.57603,0.8588093 z m -53.8925,41.3673663 c 42.26105,42.638554 42.32904,102.310615 0,145.018205 -5.14635,5.19244 -14.88456,5.75393 -20.9324,1.20031 l -6.82039,-5.13537 c -5.15807,-3.88351 -5.8591,-10.21274 -1.50639,-14.66419 31.10788,-31.81553 31.10554,-76.00601 0,-107.819703 -4.35271,-4.451449 -3.65168,-10.779761 1.50639,-14.664193 l 6.82039,-5.135367 c 6.04784,-4.553623 15.78605,-3.992129 20.9324,1.200308 z" />
    <path
       id="path2-3"
       d="m 359.8736,451.95016 c -10.46619,0 -20.93237,-8.75083 -26.16548,-12.50118 -26.16546,-17.50166 -34.01509,-23.75227 -39.2482,-27.50263 v 52.50501 c 0,6.903 5.85862,12.50119 13.08274,12.50119 h 104.66186 c 7.22412,0 13.08274,-5.59819 13.08274,-12.50119 v -52.50501 c -5.23309,3.75036 -13.08274,10.00097 -39.2482,27.50263 -5.23308,3.75035 -15.69928,12.50118 -26.16546,12.50118 z m 52.33092,-75.00714 H 307.54266 c -7.22412,0 -13.08274,5.59819 -13.08274,12.5012 v 6.25058 c 10.46619,7.50071 9.15791,7.50071 47.09785,33.75322 3.92481,2.50023 11.77446,10.00096 18.31583,10.00096 6.54136,0 14.39101,-7.50073 18.31582,-8.75085 37.93992,-26.25249 36.63165,-26.25249 47.09784,-33.75321 v -7.5007 c 0,-6.90301 -5.85862,-12.5012 -13.08274,-12.5012 z M 516.86639,339.43944 H 386.03906 c -7.22411,0 -13.08274,5.59819 -13.08274,12.50119 v 12.50119 h 39.2482 c 13.57742,0 24.77134,9.93064 26.04691,22.58809 l 0.11849,-0.0859 v 52.50501 h 78.49641 c 7.22413,0 13.08273,-5.59819 13.08273,-12.50119 v -75.00715 c 0,-6.90302 -5.8586,-12.5012 -13.08273,-12.5012 z m -13.08273,50.00478 h -26.16547 v -25.0024 h 26.16547 z M 359.8736,351.94063 c 0,-13.78647 11.73767,-25.00238 26.16546,-25.00238 h 91.57913 v -37.50358 c 0,-6.903 -5.85861,-12.50118 -13.08273,-12.50118 H 333.70812 c -7.22412,0 -13.08273,5.59818 -13.08273,12.50118 v 75.00715 h 39.24821 z"
       style="fill:#ffffff;fill-opacity:1;stroke-width:0.39964554"
       inkscape:connector-curvature="0" />
  </g>
</svg>
