<?xml version="1.0" encoding="UTF-8" standalone="no"?>
<svg
   xmlns:dc="http://purl.org/dc/elements/1.1/"
   xmlns:cc="http://creativecommons.org/ns#"
   xmlns:rdf="http://www.w3.org/1999/02/22-rdf-syntax-ns#"
   xmlns:svg="http://www.w3.org/2000/svg"
   xmlns="http://www.w3.org/2000/svg"
   xmlns:sodipodi="http://sodipodi.sourceforge.net/DTD/sodipodi-0.dtd"
   xmlns:inkscape="http://www.inkscape.org/namespaces/inkscape"
   aria-hidden="true"
   focusable="false"
   data-prefix="fas"
   data-icon="house-damage"
   class="svg-inline--fa fa-house-damage fa-w-18"
   role="img"
   viewBox="0 0 200 200"
   version="1.1"
   id="svg4"
   sodipodi:docname="mobiliario.svg"
   inkscape:version="0.92.4 (33fec40, 2019-01-16)"
   width="200"
   height="200">
  <metadata
     id="metadata10">
    <rdf:RDF>
      <cc:Work
         rdf:about="">
        <dc:format>image/svg+xml</dc:format>
        <dc:type
           rdf:resource="http://purl.org/dc/dcmitype/StillImage" />
        <dc:title></dc:title>
      </cc:Work>
    </rdf:RDF>
  </metadata>
  <defs
     id="defs8" />
  <sodipodi:namedview
     pagecolor="#ffffff"
     bordercolor="#666666"
     borderopacity="1"
     objecttolerance="10"
     gridtolerance="10"
     guidetolerance="10"
     inkscape:pageopacity="0"
     inkscape:pageshadow="2"
     inkscape:window-width="857"
     inkscape:window-height="480"
     id="namedview6"
     showgrid="false"
     inkscape:zoom="0.29168701"
     inkscape:cx="95.866697"
     inkscape:cy="289.3314"
     inkscape:window-x="0"
     inkscape:window-y="27"
     inkscape:window-maximized="0"
     inkscape:current-layer="svg4"
     showguides="true"
     inkscape:guide-bbox="true">
    <sodipodi:guide
       position="0,133.70496"
       orientation="1,0"
       id="guide816"
       inkscape:locked="false" />
    <sodipodi:guide
       position="260.55325,198.84327"
       orientation="0,1"
       id="guide818"
       inkscape:locked="false" />
  </sodipodi:namedview>
  <path
     d="M 99.999349,58.679692 43.090643,115.14942 c -0.421874,0.42773 -0.960935,0.62695 -1.424476,0.98144 v 54.18164 c 0,2.58984 1.864579,4.6875 4.166656,4.6875 h 28.208698 c 17.853721,-52.93947 2.636266,-67.95102 0,0 h 80.124349 c 2.30208,0 4.16666,-2.09766 4.16666,-4.6875 v -54.16992 c -0.44271,-0.33984 -0.96875,-0.5332 -1.36979,-0.9375 z M 173.61634,94.22266 158.33253,79.03809 V 39.062506 c 0,-2.589844 -1.86458,-4.6875 -4.16666,-4.6875 h -16.66662 c -2.30208,0 -4.16665,2.097656 -4.16665,4.6875 V 54.20606 L 106.96548,28.020514 c -1.98698,-2.009765 -4.47655,-3.017578 -6.966131,-3.020508 -2.489577,-0.0029 -4.973946,0.999024 -6.953107,3.008789 L 26.382353,94.22266 c -1.710933,1.73144 -1.854162,4.69336 -0.315103,6.62109 l 5.572902,6.97852 c 1.536454,1.9248 4.171864,2.08594 5.885401,0.35449 L 97.244148,48.915044 c 1.575516,-1.561523 3.937492,-1.561523 5.513002,0 l 59.7186,59.258786 c 1.71093,1.72852 4.34634,1.57031 5.8854,-0.35449 l 5.5729,-6.97852 c 1.53646,-1.9248 1.39583,-4.88964 -0.31771,-6.61816 z"
     id="path2"
     inkscape:connector-curvature="0"
     style="fill:#ffffff;stroke-width:0.27621323"
     sodipodi:nodetypes="cccssccsscccccssssccsccccccccccc" />
  <path
     inkscape:connector-curvature="0"
     style="fill:#d54130;fill-opacity:1;stroke-width:0.17413563"
     d="m 72.228937,131.03582 v 11.33442 h 54.790593 v -11.33442 c 0,-6.25164 4.91403,-11.33441 10.95812,-11.33441 h 5.47906 c 0,-9.38631 -7.36249,-17.00162 -16.43718,-17.00162 H 72.228937 c -9.074695,0 -16.437184,7.61531 -16.437184,17.00162 h 5.479061 c 6.044086,0 10.958123,5.08277 10.958123,11.33441 z m 71.227773,-5.66721 h -5.47906 c -3.0306,0 -5.47906,2.53254 -5.47906,5.66721 v 17.00162 H 66.749873 v -17.00162 c 0,-3.13467 -2.448457,-5.66721 -5.479061,-5.66721 h -5.479059 c -6.044088,0 -10.95812,5.08278 -10.95812,11.33442 0,4.17956 2.225869,7.7924 5.479059,9.75822 v 21.41142 c 0,1.55848 1.232788,2.8336 2.739532,2.8336 h 10.95812 c 1.50674,0 2.739529,-1.27512 2.739529,-2.8336 v -2.83361 h 65.748717 v 2.83361 c 0,1.55848 1.23279,2.8336 2.73953,2.8336 h 10.95812 c 1.50674,0 2.73953,-1.27512 2.73953,-2.8336 v -21.41142 c 3.25319,-1.96582 5.47906,-5.57866 5.47906,-9.75822 0,-6.25164 -4.91403,-11.33442 -10.95812,-11.33442 z"
     id="path2-3" />
</svg>
