<?xml version="1.0" encoding="UTF-8" standalone="no"?>
<svg
   xmlns:dc="http://purl.org/dc/elements/1.1/"
   xmlns:cc="http://creativecommons.org/ns#"
   xmlns:rdf="http://www.w3.org/1999/02/22-rdf-syntax-ns#"
   xmlns:svg="http://www.w3.org/2000/svg"
   xmlns="http://www.w3.org/2000/svg"
   xmlns:sodipodi="http://sodipodi.sourceforge.net/DTD/sodipodi-0.dtd"
   xmlns:inkscape="http://www.inkscape.org/namespaces/inkscape"
   aria-hidden="true"
   focusable="false"
   data-prefix="fas"
   data-icon="ruler-combined"
   class="svg-inline--fa fa-ruler-combined fa-w-16"
   role="img"
   viewBox="0 0 200 200"
   version="1.1"
   id="svg4"
   sodipodi:docname="medicion.svg"
   width="200"
   height="200"
   inkscape:version="0.92.4 (33fec40, 2019-01-16)">
  <metadata
     id="metadata10">
    <rdf:RDF>
      <cc:Work
         rdf:about="">
        <dc:format>image/svg+xml</dc:format>
        <dc:type
           rdf:resource="http://purl.org/dc/dcmitype/StillImage" />
        <dc:title></dc:title>
      </cc:Work>
    </rdf:RDF>
  </metadata>
  <defs
     id="defs8" />
  <sodipodi:namedview
     pagecolor="#ffffff"
     bordercolor="#666666"
     borderopacity="1"
     objecttolerance="10"
     gridtolerance="10"
     guidetolerance="10"
     inkscape:pageopacity="0"
     inkscape:pageshadow="2"
     inkscape:window-width="1366"
     inkscape:window-height="713"
     id="namedview6"
     showgrid="false"
     inkscape:zoom="0.41975883"
     inkscape:cx="-86.527194"
     inkscape:cy="-25.030165"
     inkscape:window-x="0"
     inkscape:window-y="27"
     inkscape:window-maximized="1"
     inkscape:current-layer="svg4"
     showguides="true"
     inkscape:guide-bbox="true">
    <sodipodi:guide
       position="0,26.205524"
       orientation="1,0"
       id="guide816"
       inkscape:locked="false" />
    <sodipodi:guide
       position="262.05524,202.49723"
       orientation="0,1"
       id="guide818"
       inkscape:locked="false" />
  </sodipodi:namedview>
  <path
     d="M 71.875,109.375 H 55.468748 c -1.294922,0 -2.343748,-1.04883 -2.343748,-2.34375 v -4.6875 C 53.125,101.04883 54.173826,100 55.468748,100 H 71.875 V 81.25 H 55.468748 C 54.173826,81.25 53.125,80.201171 53.125,78.90625 v -4.6875 c 0,-1.294921 1.048826,-2.34375 2.343748,-2.34375 H 71.875 V 53.125 H 55.468748 C 54.173826,53.125 53.125,52.076171 53.125,50.78125 v -4.6875 c 0,-1.294921 1.048826,-2.34375 2.343748,-2.34375 H 71.875 V 34.375 C 71.875,29.198241 67.67676,25 62.5,25 H 34.375 C 29.198242,25 25,29.198241 25,34.375 v 131.25 c 0,0.81152 0.266601,1.53516 0.459961,2.28516 L 71.875,121.49805 Z m 93.75,18.75 h -9.375 v 16.40625 c 0,1.29492 -1.04883,2.34375 -2.34375,2.34375 h -4.6875 c -1.29492,0 -2.34375,-1.04883 -2.34375,-2.34375 V 128.125 h -18.75 v 16.40625 c 0,1.29492 -1.04883,2.34375 -2.34375,2.34375 h -4.6875 c -1.29492,0 -2.34375,-1.04883 -2.34375,-2.34375 V 128.125 H 100 v 16.40625 c 0,1.29492 -1.04883,2.34375 -2.34375,2.34375 h -4.6875 c -1.29492,0 -2.34375,-1.04883 -2.34375,-2.34375 V 128.125 H 78.50488 L 32.089844,174.54004 C 32.839844,174.7334 33.566406,175 34.375,175 h 131.25 c 5.17676,0 9.375,-4.19824 9.375,-9.375 V 137.5 c 0,-5.17676 -4.19824,-9.375 -9.375,-9.375 z"
     id="path2"
     inkscape:connector-curvature="0"
     style="fill:#ffffff;fill-opacity:1;stroke-width:0.29296875"
     inkscape:export-xdpi="96"
     inkscape:export-ydpi="96" />
  <path
     inkscape:connector-curvature="0"
     style="fill:#ffffff;fill-opacity:1;stroke-width:0.2010154"
     d="m 158.00671,37.535314 h -17.08157 c 0,-6.680296 -6.12801,-12.111583 -13.66525,-12.111583 -7.53724,0 -13.66525,5.431287 -13.66525,12.111583 H 96.51306 c -5.65826,0 -10.24894,4.068731 -10.24894,9.083687 V 113.2327 c 0,5.01495 4.59068,9.08368 10.24894,9.08368 h 61.49365 c 5.65827,0 10.24894,-4.06873 10.24894,-9.08368 V 46.619001 c 0,-5.014956 -4.59067,-9.083687 -10.24894,-9.083687 z m -30.74682,-4.541845 c 2.83981,0 5.12447,2.024907 5.12447,4.541845 0,2.516935 -2.28466,4.541842 -5.12447,4.541842 -2.83981,0 -5.12447,-2.024907 -5.12447,-4.541842 0,-2.516938 2.28466,-4.541845 5.12447,-4.541845 z m 30.74682,79.103771 c 0,0.6245 -0.5765,1.13546 -1.28112,1.13546 h -58.9314 c -0.70462,0 -1.28113,-0.51096 -1.28113,-1.13546 V 47.754459 c 0,-0.624503 0.57651,-1.135458 1.28113,-1.135458 h 8.96782 v 6.812764 c 0,1.249006 1.153,2.270919 2.56223,2.270919 h 35.87129 c 1.40924,0 2.56224,-1.021913 2.56224,-2.270919 v -6.812764 h 8.96782 c 0.70462,0 1.28112,0.510955 1.28112,1.135458 z"
     id="path2-3" />
</svg>
